<?xml version="1.0" standalone="no"?>
<!DOCTYPE svg PUBLIC "-//W3C//DTD SVG 20010904//EN"
 "http://www.w3.org/TR/2001/REC-SVG-20010904/DTD/svg10.dtd">
<svg version="1.0" xmlns="http://www.w3.org/2000/svg"
 width="577.000000pt" height="433.000000pt" viewBox="0 0 577.000000 433.000000"
 preserveAspectRatio="xMidYMid meet">

<g transform="translate(0.000000,433.000000) scale(0.100000,-0.100000)"
fill="#000000" stroke="none">
<path d="M2925 3812 c-74 -28 -103 -45 -191 -110 -140 -103 -220 -262 -309
-607 -14 -55 -34 -129 -45 -165 -10 -36 -23 -101 -29 -145 -5 -45 -13 -88 -16
-97 -4 -9 -3 -18 2 -21 8 -5 5 -53 -12 -237 -9 -99 -60 -261 -96 -307 -33 -40
-37 -52 -12 -32 13 11 15 11 9 1 -4 -7 -20 -18 -34 -24 -26 -11 -25 -12 23
-17 28 -4 69 -16 93 -29 24 -12 47 -20 52 -17 5 3 11 1 15 -5 4 -6 10 -8 13
-6 4 2 19 -4 32 -15 82 -66 89 -68 218 -66 88 1 124 -2 136 -12 14 -12 16 -11
16 7 0 11 -6 23 -12 26 -10 5 -10 7 0 12 6 3 12 16 12 29 0 32 9 36 56 24 50
-13 73 -33 104 -92 22 -42 28 -48 50 -42 56 13 144 4 180 -18 33 -21 64 -39
100 -58 8 -4 28 -11 44 -14 21 -5 27 -10 23 -25 -3 -10 -1 -20 5 -22 5 -2 5
-13 -1 -28 -5 -14 -10 -20 -11 -15 -2 20 -30 -58 -30 -84 0 -14 11 -38 25 -53
25 -28 36 -76 13 -62 -8 5 -9 2 -5 -10 4 -10 7 -25 8 -34 0 -11 2 -12 6 -4 2
6 9 12 14 12 7 0 7 -6 0 -17 -13 -23 12 -71 40 -75 l20 -3 -20 -21 c-23 -25
-17 -38 10 -23 16 8 19 6 19 -10 0 -11 -6 -22 -12 -24 -7 -3 -3 -6 8 -6 19 -1
23 -10 34 -84 27 -173 30 -255 10 -267 -8 -5 -11 -12 -7 -16 4 -4 13 -2 19 4
16 16 28 15 28 -3 0 -8 -6 -15 -12 -15 -8 0 -9 -3 -3 -8 6 -4 11 -11 12 -17 7
-49 14 -80 28 -140 9 -38 18 -77 20 -85 2 -8 4 -15 5 -15 1 0 3 -11 6 -25 7
-47 27 -100 37 -100 6 0 8 3 4 6 -3 3 -2 16 2 28 9 24 -6 89 -18 81 -5 -3 -9
23 -8 58 0 34 -3 72 -7 84 -5 16 -2 23 14 28 11 4 17 11 14 17 -4 7 -9 6 -14
-2 -5 -7 -9 -3 -12 14 -3 14 -2 23 2 21 5 -3 10 2 14 10 3 8 1 14 -3 12 -5 -1
-9 3 -9 8 0 6 4 9 9 8 4 -2 6 4 3 11 -3 8 -12 12 -19 10 -10 -4 -13 6 -13 40
l1 46 24 -34 c12 -19 23 -42 23 -50 0 -9 5 -16 11 -16 7 0 9 -10 5 -25 -4 -14
-2 -25 3 -25 5 0 12 -7 15 -16 4 -11 2 -15 -8 -11 -10 4 -13 1 -9 -9 3 -7 11
-14 19 -14 8 0 14 -8 14 -17 0 -15 -2 -16 -10 -3 -7 10 -10 11 -10 2 0 -7 7
-15 15 -18 9 -4 15 -19 15 -36 0 -16 -3 -27 -7 -25 -5 3 -8 -19 -8 -48 0 -38
3 -51 13 -48 15 6 16 -11 2 -37 -6 -10 -12 -31 -14 -47 -8 -55 -19 -93 -27
-93 -5 0 -6 -6 -3 -14 3 -7 -2 -31 -12 -52 -9 -22 -16 -43 -15 -47 1 -4 -4
-17 -10 -29 -9 -16 -8 -19 2 -13 9 6 11 2 7 -13 -4 -12 -3 -24 1 -26 4 -3 6
-22 5 -44 -1 -29 3 -42 18 -51 11 -7 18 -9 15 -4 -12 19 -17 92 -7 98 6 3 8
10 5 15 -3 5 4 31 14 58 11 27 18 52 15 55 -3 3 4 8 17 12 17 6 19 9 8 17 -11
7 -11 11 -1 15 6 2 12 22 12 43 0 41 22 73 44 64 9 -4 13 -20 11 -52 -2 -26 1
-52 6 -59 6 -6 12 -23 15 -38 3 -15 12 -35 21 -44 15 -15 14 -16 -13 -21 -16
-3 -24 -8 -19 -11 6 -4 18 -5 28 -4 31 6 19 -36 -29 -91 -25 -30 -42 -54 -38
-54 4 0 13 8 20 18 13 16 15 16 29 -2 17 -22 20 -14 5 13 -7 14 -3 24 17 42
14 13 23 18 19 12 -5 -8 -1 -13 10 -13 11 0 15 -6 11 -20 -3 -11 -1 -18 4 -14
5 3 9 0 9 -5 0 -6 -9 -11 -19 -11 -11 0 -23 -5 -27 -12 -5 -8 -2 -9 9 -5 11 4
24 -2 37 -15 23 -25 26 -44 8 -51 -10 -4 -10 -6 0 -6 21 -2 13 -19 -10 -24
l-23 -4 23 -2 c12 0 22 -5 22 -11 0 -6 60 -10 159 -10 l159 0 5 118 c4 112 32
412 43 460 4 18 9 21 31 16 17 -5 24 -3 19 4 -3 6 2 15 11 21 17 10 16 11 -4
17 -27 8 -30 24 -5 24 10 0 23 5 29 11 18 18 -7 39 -34 28 -26 -10 -32 8 -10
30 10 11 10 13 0 7 -7 -4 -13 -2 -13 3 0 6 6 11 13 12 6 0 3 4 -8 9 -21 9 -8
14 28 11 9 -1 17 1 17 4 0 12 -27 34 -34 28 -3 -4 -6 -1 -6 6 0 8 7 10 21 6
15 -5 19 -4 15 4 -4 6 0 11 10 11 25 0 9 12 -18 14 -25 1 -39 36 -14 36 8 0
17 4 20 9 4 5 -2 7 -13 4 -14 -3 -18 1 -17 17 0 11 8 25 16 30 13 8 13 10 -1
10 -12 0 -15 7 -12 24 4 17 0 25 -14 29 -10 3 -1 5 19 6 36 1 54 12 41 24 -3
4 -15 1 -27 -5 -20 -11 -20 -10 -6 7 14 17 13 18 -2 12 -10 -3 -18 -2 -18 4 0
6 -7 17 -15 26 -15 15 -12 33 6 33 6 0 8 -4 5 -9 -7 -10 28 -43 37 -35 3 4 2
14 -3 24 -5 10 -6 20 -3 24 3 3 -3 6 -14 6 -12 0 -24 7 -27 16 -8 21 2 33 13
15 6 -9 11 -10 15 -2 4 6 2 11 -5 11 -7 0 -9 10 -7 25 3 14 1 25 -4 25 -5 0
-8 8 -7 18 1 9 -1 47 -5 85 -6 49 -5 71 4 82 7 8 9 15 4 15 -5 0 2 7 14 16
l23 16 -20 15 c-25 17 -28 43 -4 43 9 0 31 -11 49 -25 50 -38 54 -30 6 15 -23
22 -47 40 -52 40 -6 0 -10 7 -10 15 0 8 -6 15 -12 15 -9 0 -13 15 -12 42 0 24
-3 50 -7 58 -9 19 -21 51 -25 68 -4 22 -53 80 -99 119 -37 30 -42 39 -33 52
10 13 10 14 -2 4 -19 -18 -23 -17 -54 12 -15 14 -35 25 -45 25 -32 0 -79 65
-100 137 -43 146 -83 344 -80 398 5 80 -4 251 -17 344 -8 57 -13 109 -10 116
2 7 -9 66 -26 131 -16 66 -34 137 -38 159 -5 22 -24 83 -42 136 -98 281 -267
440 -483 455 -220 15 -219 15 -270 -4z m151 -434 c3 -5 19 -8 37 -8 46 0 129
-45 151 -83 22 -36 23 -40 36 -122 25 -152 26 -140 -11 -158 -19 -8 -54 -34
-78 -56 l-44 -41 7 -112 c11 -164 11 -160 -21 -185 -42 -35 -67 -38 -100 -14
-32 24 -97 37 -90 18 2 -7 17 -16 32 -22 16 -5 39 -20 51 -32 30 -30 70 -38
121 -25 67 18 81 16 79 -13 -1 -24 -4 -25 -66 -27 -111 -4 -139 -1 -315 27
-52 9 -43 41 33 119 67 69 58 72 -29 10 -52 -38 -102 -52 -123 -35 -7 6 -20 9
-28 6 -26 -10 -42 46 -32 112 5 32 9 65 10 73 1 8 5 30 9 47 l7 33 104 -4 c57
-1 107 -6 111 -9 3 -4 11 -3 18 3 7 6 20 4 38 -5 26 -13 26 -13 20 16 -5 24
-3 28 11 23 22 -8 21 12 -1 25 -10 6 -12 11 -5 11 6 0 12 9 12 21 0 34 -99 73
-186 74 -80 0 -81 3 -27 60 15 16 29 41 30 55 1 14 7 44 14 67 6 23 9 52 6 63
-3 11 -1 20 4 20 5 0 8 3 8 8 -6 39 64 74 144 70 33 -2 61 -6 63 -10z m-148
-407 c13 -8 9 -10 -23 -11 -23 0 -67 -7 -98 -15 -69 -18 -77 -18 -77 -5 0 6
19 20 43 30 44 21 120 21 155 1z m362 -87 c0 -8 -5 -12 -10 -9 -6 4 -8 11 -5
16 9 14 15 11 15 -7z m-4 -57 c2 -24 0 -27 -19 -22 -19 5 -19 4 3 -9 14 -9 36
-13 50 -11 14 3 31 1 38 -4 30 -19 27 -153 -4 -165 -17 -7 -124 88 -124 110 0
8 -5 14 -11 14 -6 0 -3 7 5 16 20 20 21 58 1 78 -21 20 -20 22 21 21 33 0 37
-3 40 -28z m-475 -332 c13 -3 36 -19 51 -37 14 -18 30 -30 34 -26 3 4 15 3 25
-3 13 -7 19 -6 19 1 0 6 -7 13 -15 16 -8 4 -15 14 -15 24 0 18 18 20 53 7 45
-18 54 -20 79 -18 14 1 29 -2 32 -8 5 -7 15 -7 33 0 17 6 30 6 38 -1 9 -7 15
-8 19 -1 9 14 66 9 66 -6 0 -14 -59 -48 -68 -39 -3 3 -10 2 -16 -3 -11 -9
-137 1 -179 15 -34 11 -9 -15 30 -31 22 -9 40 -12 47 -6 7 5 34 5 69 0 40 -7
64 -6 78 2 17 8 20 8 17 -2 -15 -44 -161 -69 -209 -36 -25 18 -49 22 -49 8 0
-4 21 -17 48 -27 49 -20 103 -23 160 -10 21 5 32 4 32 -3 0 -6 -5 -11 -11 -11
-5 0 -7 -4 -4 -10 3 -5 19 -10 36 -10 25 0 29 -4 28 -27 -1 -39 -8 -54 -51
-105 -41 -49 -98 -73 -145 -62 -89 21 -157 82 -209 187 -20 40 -54 102 -75
139 -44 76 -49 94 -20 78 29 -15 33 -13 25 12 -6 20 -5 21 9 10 8 -7 26 -15
38 -17z m1459 -1037 c0 -7 -5 -20 -10 -28 -8 -12 -10 -9 -10 13 0 15 5 27 10
27 6 0 10 -6 10 -12z m-18 -178 c-6 -41 -12 -38 -12 6 0 19 4 33 8 30 5 -3 7
-19 4 -36z m38 -661 c0 -5 -7 -9 -15 -9 -8 0 -15 7 -15 15 0 9 6 12 15 9 8 -4
15 -10 15 -15z m-683 -61 c-3 -7 -5 -2 -5 12 0 14 2 19 5 13 2 -7 2 -19 0 -25z
m153 -9 c0 -17 -4 -28 -9 -25 -5 4 -12 0 -14 -6 -3 -8 -6 -6 -6 5 -1 9 4 17 9
17 6 0 8 11 4 26 -5 19 -4 25 5 20 6 -4 11 -21 11 -37z m35 -149 c3 -5 -1 -10
-10 -10 -9 0 -13 5 -10 10 3 6 8 10 10 10 2 0 7 -4 10 -10z"/>
<path d="M2910 2385 c7 -9 15 -13 17 -11 7 7 -7 26 -19 26 -6 0 -6 -6 2 -15z"/>
<path d="M2762 1858 c2 -6 10 -14 16 -16 7 -2 10 2 6 12 -7 18 -28 22 -22 4z"/>
<path d="M1868 1853 c6 -2 18 -2 25 0 6 3 1 5 -13 5 -14 0 -19 -2 -12 -5z"/>
<path d="M1818 1843 c7 -3 16 -2 19 1 4 3 -2 6 -13 5 -11 0 -14 -3 -6 -6z"/>
<path d="M1755 1823 c-71 -38 -108 -77 -143 -153 -32 -67 -36 -85 -38 -165 -1
-49 -7 -136 -14 -191 -9 -79 -9 -106 0 -120 6 -11 10 -13 7 -4 -5 15 17 43 26
34 2 -3 4 38 3 91 0 52 2 95 5 95 12 0 20 -32 13 -52 -4 -15 -1 -19 12 -16 9
2 19 -3 22 -11 3 -9 0 -11 -8 -6 -9 6 -11 4 -6 -4 5 -7 14 -10 22 -7 19 7 28
-17 16 -41 -10 -18 9 -49 22 -36 3 4 6 1 6 -5 0 -7 7 -12 15 -12 8 0 14 -3 14
-7 -4 -22 4 -32 40 -48 40 -18 82 -13 78 8 -1 7 -23 24 -48 39 -25 15 -58 41
-72 58 -41 48 -97 251 -97 348 0 77 55 158 138 201 20 11 33 20 27 20 -5 0
-23 -7 -40 -16z"/>
<path d="M2687 1709 c-9 -6 -15 -14 -12 -19 3 -5 -12 -21 -34 -35 -23 -14 -43
-36 -47 -50 -9 -36 14 -213 30 -237 8 -11 11 -28 9 -39 -5 -19 -5 -19 30 1 41
24 62 68 72 153 6 50 12 62 41 85 37 29 43 49 18 59 -11 4 -14 13 -9 30 4 19
1 26 -15 30 -11 3 -20 12 -20 19 0 16 -37 18 -63 3z"/>
<path d="M4275 1589 c-4 -6 -5 -12 -2 -15 2 -3 7 2 10 11 7 17 1 20 -8 4z"/>
<path d="M2000 1451 c0 -20 23 -71 32 -71 6 0 8 -7 4 -15 -3 -9 0 -15 9 -15 7
0 17 -5 21 -11 5 -8 -3 -10 -25 -7 -22 3 -31 1 -31 -9 0 -8 5 -11 12 -7 8 5 9
2 5 -9 -4 -11 -1 -17 7 -17 26 0 26 -31 1 -58 -14 -15 -25 -34 -25 -43 0 -21
-14 -26 -62 -25 -21 1 -38 -2 -38 -6 0 -4 -5 -8 -11 -8 -5 0 -7 5 -4 10 10 16
-25 12 -41 -5 -14 -13 -10 -14 33 -10 44 3 46 3 29 -11 -17 -12 -18 -14 -3
-14 9 0 17 -4 17 -10 0 -5 5 -10 11 -10 8 0 8 5 -1 15 -11 14 -7 19 12 16 4 0
19 4 33 9 16 6 25 6 25 0 0 -6 -8 -10 -17 -11 -12 0 -13 -2 -5 -6 7 -3 19 0
26 6 11 9 15 9 18 -1 3 -9 16 -1 37 21 37 40 46 37 29 -9 -8 -23 -8 -35 -1
-37 6 -2 9 -20 7 -41 l-4 -37 15 34 c8 18 15 40 15 47 0 8 6 14 13 14 10 0 13
-20 11 -79 -1 -44 -4 -84 -7 -88 -3 -5 -9 -32 -13 -59 -3 -27 -8 -53 -11 -57
-3 -5 -6 -20 -8 -34 -1 -14 -8 -29 -15 -33 -8 -5 -8 -9 -2 -11 7 -3 8 -19 2
-49 -31 -155 -45 -208 -52 -204 -10 6 -6 -19 4 -26 13 -10 -4 -51 -18 -46 -8
3 -14 1 -14 -4 0 -6 7 -10 17 -10 12 0 9 -6 -11 -24 -23 -19 -25 -24 -12 -29
22 -9 13 -84 -12 -103 -15 -13 -15 -13 0 -8 13 4 15 1 11 -18 -3 -13 -11 -29
-16 -36 -8 -10 -7 -16 2 -21 9 -6 9 -19 2 -52 -13 -54 -13 -59 -3 -59 5 0 14
33 21 73 6 39 16 90 22 112 6 22 11 51 12 65 2 14 6 34 9 45 4 11 19 97 33
190 28 189 28 190 55 327 11 53 20 99 20 102 0 3 5 6 11 6 5 0 8 -4 4 -9 -3
-5 -2 -12 3 -15 13 -8 2 -77 -12 -70 -6 3 -3 -1 6 -9 10 -8 15 -17 12 -20 -3
-3 -7 -23 -9 -44 -14 -165 -19 -192 -29 -186 -6 4 -5 -1 2 -10 8 -9 11 -21 7
-27 -3 -5 -1 -10 4 -10 6 0 11 6 12 13 0 6 2 29 3 51 1 25 9 42 20 48 15 8 16
12 5 19 -11 7 -10 11 6 23 20 15 20 15 -2 16 -13 0 -23 5 -23 10 0 6 5 10 11
10 6 0 22 9 36 20 14 11 21 20 15 20 -6 0 -14 -5 -17 -10 -10 -16 -35 -12 -29
5 4 8 11 12 16 9 6 -4 6 1 0 13 -9 15 -7 23 9 36 10 9 24 17 29 17 13 0 13 17
0 25 -6 4 -8 11 -4 16 3 5 5 48 5 95 -1 81 1 86 19 81 28 -7 25 2 -5 13 -18 7
-24 16 -23 35 1 14 10 28 20 31 10 3 18 10 18 16 0 7 -4 7 -13 -1 -15 -12 -27
-5 -27 16 0 21 50 17 51 -4 0 -10 3 -31 6 -48 3 -16 6 -49 7 -72 1 -24 6 -43
11 -43 6 0 3 -5 -5 -10 -9 -6 -10 -10 -3 -10 6 0 16 -24 22 -52 5 -29 17 -91
26 -138 8 -46 17 -86 20 -88 2 -2 8 6 15 17 8 16 8 21 -1 21 -6 0 -9 7 -5 15
3 8 0 15 -5 15 -7 0 -4 12 6 27 15 22 15 25 2 20 -25 -9 -8 23 17 34 19 8 18
9 -6 6 -33 -5 -33 -5 -12 35 15 28 15 30 0 25 -10 -4 -16 -1 -16 8 0 8 5 15
12 15 6 0 3 7 -8 15 -12 9 -14 14 -6 15 7 0 10 5 6 12 -4 6 -8 34 -9 63 -1 28
-4 56 -8 62 -4 6 -1 13 5 16 10 3 8 10 -5 25 -20 22 -14 47 9 38 11 -4 10 1
-3 19 -23 31 -79 44 -96 22 -24 -30 -74 -9 -150 62 -39 36 -68 58 -64 49 13
-36 -3 -17 -24 27 -19 40 -39 59 -39 36z m360 -201 c0 -5 -4 -10 -10 -10 -5 0
-10 5 -10 10 0 6 5 10 10 10 6 0 10 -4 10 -10z"/>
<path d="M2247 1366 c-3 -8 -2 -18 4 -22 16 -9 22 2 11 21 -8 15 -10 16 -15 1z"/>
<path d="M2417 1373 c-4 -3 -7 -15 -7 -26 0 -10 -9 -21 -20 -24 -18 -5 -17 -7
8 -28 34 -28 78 -40 84 -22 11 28 -48 118 -65 100z"/>
<path d="M4287 1343 c-4 -3 -7 -11 -7 -17 0 -6 5 -5 12 2 6 6 9 14 7 17 -3 3
-9 2 -12 -2z"/>
<path d="M2577 1264 c-4 -4 -7 -14 -7 -23 0 -11 3 -12 11 -4 6 6 10 16 7 23
-2 6 -7 8 -11 4z"/>
<path d="M2740 1206 c0 -9 7 -16 16 -16 17 0 14 22 -4 28 -7 2 -12 -3 -12 -12z"/>
<path d="M1600 1192 c6 -13 14 -21 18 -18 3 4 -2 14 -12 24 -18 16 -18 16 -6
-6z"/>
<path d="M1675 1200 c3 -5 8 -10 11 -10 2 0 4 5 4 10 0 6 -5 10 -11 10 -5 0
-7 -4 -4 -10z"/>
<path d="M1625 1150 c-3 -11 -4 -24 -1 -29 9 -14 86 -22 104 -11 14 8 12 9 -9
4 -35 -7 -91 20 -83 41 4 8 4 15 1 15 -3 0 -8 -9 -12 -20z"/>
<path d="M2069 978 c-5 -16 -4 -46 2 -42 4 2 7 13 6 24 -1 17 -5 26 -8 18z"/>
<path d="M3441 860 c-13 -11 -19 -20 -14 -20 6 0 18 9 28 20 23 25 17 25 -14
0z"/>
<path d="M2390 735 c0 -5 14 -74 31 -152 29 -127 35 -143 53 -144 17 -1 18 -2
4 -6 -20 -5 -21 -15 -5 -59 10 -26 16 -30 32 -23 15 6 16 8 4 8 -26 1 -22 51
5 52 16 1 17 2 4 6 -10 2 -15 10 -11 19 3 8 0 14 -7 14 -7 0 -10 7 -6 15 3 10
-1 15 -11 15 -13 0 -14 3 -5 12 17 17 15 31 -3 24 -16 -6 -38 31 -28 47 2 4
-1 7 -8 7 -7 0 -10 3 -6 6 3 3 2 17 -3 30 -7 16 -6 24 1 24 8 0 8 5 -1 15 -6
8 -18 34 -25 57 -8 24 -14 39 -15 33z"/>
<path d="M4388 623 c7 -3 16 -2 19 1 4 3 -2 6 -13 5 -11 0 -14 -3 -6 -6z"/>
<path d="M2157 562 c3 -15 11 -18 31 -13 25 5 25 6 5 9 -13 2 -23 8 -23 13 0
5 -4 9 -9 9 -5 0 -7 -8 -4 -18z"/>
<path d="M2228 508 c5 -5 16 -8 23 -6 8 3 3 7 -10 11 -17 4 -21 3 -13 -5z"/>
<path d="M2160 494 c0 -8 5 -12 10 -9 6 4 8 11 5 16 -9 14 -15 11 -15 -7z"/>
<path d="M3592 475 c-7 -9 -8 -15 -2 -15 5 0 10 -12 10 -27 0 -35 6 -27 13 20
6 39 0 46 -21 22z"/>
<path d="M3600 361 c0 -25 6 -27 13 -6 4 8 2 17 -3 20 -6 4 -10 -3 -10 -14z"/>
<path d="M2490 318 c0 -4 12 -8 26 -8 14 0 23 4 19 9 -6 11 -45 10 -45 -1z"/>
<path d="M2508 283 c7 -3 16 -2 19 1 4 3 -2 6 -13 5 -11 0 -14 -3 -6 -6z"/>
<path d="M2521 256 c-6 -7 -8 -21 -5 -31 7 -17 8 -17 20 0 7 10 18 14 25 9 8
-5 10 -3 5 5 -5 7 -14 10 -22 7 -8 -3 -14 -1 -14 3 0 5 6 12 13 14 7 4 8 6 1
6 -6 1 -17 -5 -23 -13z"/>
<path d="M3660 260 c0 -5 5 -10 11 -10 5 0 7 5 4 10 -3 6 -8 10 -11 10 -2 0
-4 -4 -4 -10z"/>
<path d="M3770 239 c0 -5 5 -7 10 -4 6 3 10 8 10 11 0 2 -4 4 -10 4 -5 0 -10
-5 -10 -11z"/>
<path d="M2125 220 c3 -5 8 -10 11 -10 2 0 4 5 4 10 0 6 -5 10 -11 10 -5 0 -7
-4 -4 -10z"/>
<path d="M2525 190 c3 -5 10 -10 16 -10 5 0 9 5 9 10 0 6 -7 10 -16 10 -8 0
-12 -4 -9 -10z"/>
<path d="M3800 160 c0 -5 5 -10 10 -10 6 0 10 5 10 10 0 6 -4 10 -10 10 -5 0
-10 -4 -10 -10z"/>
<path d="M2614 129 c-3 -6 -2 -15 3 -20 5 -5 9 -1 10 11 2 22 -2 25 -13 9z"/>
<path d="M2640 125 c0 -8 4 -15 8 -15 5 0 9 7 9 15 0 8 -4 15 -9 15 -4 0 -8
-7 -8 -15z"/>
<path d="M2675 120 c-3 -6 1 -7 9 -4 18 7 21 14 7 14 -6 0 -13 -4 -16 -10z"/>
<path d="M3705 100 c-3 -5 -1 -10 4 -10 6 0 11 5 11 10 0 6 -2 10 -4 10 -3 0
-8 -4 -11 -10z"/>
<path d="M3820 99 c0 -5 5 -7 10 -4 6 3 10 8 10 11 0 2 -4 4 -10 4 -5 0 -10
-5 -10 -11z"/>
<path d="M3680 69 c0 -5 5 -7 10 -4 6 3 10 8 10 11 0 2 -4 4 -10 4 -5 0 -10
-5 -10 -11z"/>
<path d="M1978 53 c-22 -6 -24 -23 -2 -23 8 0 12 -5 9 -10 -4 -6 -12 -7 -18
-4 -9 5 -9 4 0 -6 6 -7 16 -10 21 -6 11 6 23 57 13 55 -3 -1 -14 -3 -23 -6z"/>
<path d="M3540 50 c0 -5 5 -10 11 -10 5 0 7 5 4 10 -3 6 -8 10 -11 10 -2 0 -4
-4 -4 -10z"/>
<path d="M2115 20 c-3 -5 -1 -10 4 -10 6 0 11 5 11 10 0 6 -2 10 -4 10 -3 0
-8 -4 -11 -10z"/>
</g>
</svg>
